<mxfile host="app.diagrams.net" modified="2021-06-07T09:53:17.013Z" agent="5.0 (Macintosh; Intel Mac OS X 10_14_6) AppleWebKit/605.1.15 (KHTML, like Gecko) Version/12.1.2 Safari/605.1.15" etag="e2xDPoCsKDkqmqsSR9-8" version="14.4.3" type="github">
  <diagram id="MQucHsyd5SLngMmXcey_" name="Page-1">
    <mxGraphModel dx="2253" dy="725" grid="1" gridSize="10" guides="1" tooltips="1" connect="1" arrows="1" fold="1" page="1" pageScale="1" pageWidth="827" pageHeight="1169" math="0" shadow="0">
      <root>
        <mxCell id="0" />
        <mxCell id="1" parent="0" />
        <mxCell id="eAiWKubyIKp_Eu82q0j3-1" value="开始" style="rounded=1;whiteSpace=wrap;html=1;" parent="1" vertex="1">
          <mxGeometry x="320" y="80" width="80" height="30" as="geometry" />
        </mxCell>
        <mxCell id="eAiWKubyIKp_Eu82q0j3-2" value="接收查询信息" style="rounded=0;whiteSpace=wrap;html=1;" parent="1" vertex="1">
          <mxGeometry x="255" y="150" width="210" height="30" as="geometry" />
        </mxCell>
        <mxCell id="eAiWKubyIKp_Eu82q0j3-4" value="&lt;span style=&quot;font-family: &amp;#34;dengxian&amp;#34;&quot;&gt;&lt;font style=&quot;font-size: 12px&quot;&gt;检索查询信息特征库，获取上述查询信息的类目及品牌信息，并将上述查询信息、类目及品牌组合起来，作为新的查询信息&lt;/font&gt;&lt;/span&gt;&lt;span style=&quot;font-size: medium&quot;&gt;&lt;/span&gt;" style="rounded=0;whiteSpace=wrap;html=1;" parent="1" vertex="1">
          <mxGeometry x="187.5" y="231" width="345" height="39" as="geometry" />
        </mxCell>
        <mxCell id="eAiWKubyIKp_Eu82q0j3-5" value="&lt;span style=&quot;font-family: &amp;#34;dengxian&amp;#34;&quot;&gt;&lt;font style=&quot;font-size: 12px&quot;&gt;检索关键词特征库，对于上述关键词列表中的关键词，&lt;br&gt;获取&lt;span lang=&quot;EN-US&quot;&gt;pv&lt;/span&gt;、&lt;span lang=&quot;EN-US&quot;&gt;ctr&lt;/span&gt;等信息&lt;/font&gt;&lt;/span&gt;&lt;span style=&quot;font-size: medium&quot;&gt;&lt;/span&gt;" style="rounded=0;whiteSpace=wrap;html=1;" parent="1" vertex="1">
          <mxGeometry x="190" y="385" width="340" height="40" as="geometry" />
        </mxCell>
        <mxCell id="eAiWKubyIKp_Eu82q0j3-6" value="" style="endArrow=classic;html=1;exitX=0.5;exitY=1;exitDx=0;exitDy=0;" parent="1" source="eAiWKubyIKp_Eu82q0j3-1" target="eAiWKubyIKp_Eu82q0j3-2" edge="1">
          <mxGeometry width="50" height="50" relative="1" as="geometry">
            <mxPoint x="390" y="400" as="sourcePoint" />
            <mxPoint x="440" y="350" as="targetPoint" />
          </mxGeometry>
        </mxCell>
        <mxCell id="eAiWKubyIKp_Eu82q0j3-8" value="" style="endArrow=classic;html=1;entryX=0.5;entryY=0;entryDx=0;entryDy=0;exitX=0.5;exitY=1;exitDx=0;exitDy=0;" parent="1" source="eAiWKubyIKp_Eu82q0j3-2" target="eAiWKubyIKp_Eu82q0j3-4" edge="1">
          <mxGeometry width="50" height="50" relative="1" as="geometry">
            <mxPoint x="370" y="240" as="sourcePoint" />
            <mxPoint x="370" y="160" as="targetPoint" />
          </mxGeometry>
        </mxCell>
        <mxCell id="eAiWKubyIKp_Eu82q0j3-11" value="&lt;span style=&quot;font-family: &amp;#34;dengxian&amp;#34;&quot;&gt;&lt;font style=&quot;font-size: 12px&quot;&gt;检索关键词库，并根据所述新的查询信息获取关键词列表&lt;/font&gt;&lt;/span&gt;&lt;span style=&quot;font-size: medium&quot;&gt;&lt;/span&gt;" style="rounded=0;whiteSpace=wrap;html=1;" parent="1" vertex="1">
          <mxGeometry x="188.75" y="310" width="342.5" height="30" as="geometry" />
        </mxCell>
        <mxCell id="eAiWKubyIKp_Eu82q0j3-12" value="" style="endArrow=classic;html=1;entryX=0.5;entryY=0;entryDx=0;entryDy=0;exitX=0.5;exitY=1;exitDx=0;exitDy=0;" parent="1" source="eAiWKubyIKp_Eu82q0j3-4" target="eAiWKubyIKp_Eu82q0j3-11" edge="1">
          <mxGeometry width="50" height="50" relative="1" as="geometry">
            <mxPoint x="370" y="190" as="sourcePoint" />
            <mxPoint x="370" y="240" as="targetPoint" />
          </mxGeometry>
        </mxCell>
        <mxCell id="eAiWKubyIKp_Eu82q0j3-13" value="" style="endArrow=classic;html=1;exitX=0.5;exitY=1;exitDx=0;exitDy=0;entryX=0.5;entryY=0;entryDx=0;entryDy=0;" parent="1" source="eAiWKubyIKp_Eu82q0j3-11" target="eAiWKubyIKp_Eu82q0j3-5" edge="1">
          <mxGeometry width="50" height="50" relative="1" as="geometry">
            <mxPoint x="390" y="370" as="sourcePoint" />
            <mxPoint x="440" y="320" as="targetPoint" />
          </mxGeometry>
        </mxCell>
        <mxCell id="eAiWKubyIKp_Eu82q0j3-15" value="对拼接的字符串进行切词" style="rounded=0;whiteSpace=wrap;html=1;" parent="1" vertex="1">
          <mxGeometry x="-10" y="470" width="210" height="30" as="geometry" />
        </mxCell>
        <mxCell id="eAiWKubyIKp_Eu82q0j3-16" value="" style="endArrow=classic;html=1;entryX=0.5;entryY=0;entryDx=0;entryDy=0;exitX=0;exitY=0.5;exitDx=0;exitDy=0;" parent="1" source="eAiWKubyIKp_Eu82q0j3-4" target="eAiWKubyIKp_Eu82q0j3-15" edge="1">
          <mxGeometry width="50" height="50" relative="1" as="geometry">
            <mxPoint x="370" y="190" as="sourcePoint" />
            <mxPoint x="370" y="240" as="targetPoint" />
            <Array as="points">
              <mxPoint x="95" y="251" />
            </Array>
          </mxGeometry>
        </mxCell>
        <mxCell id="eAiWKubyIKp_Eu82q0j3-17" value="对于关键词集合中的关键词进行切词" style="rounded=0;whiteSpace=wrap;html=1;" parent="1" vertex="1">
          <mxGeometry x="255" y="470" width="210" height="30" as="geometry" />
        </mxCell>
        <mxCell id="eAiWKubyIKp_Eu82q0j3-18" value="获取查询信息embedding" style="rounded=0;whiteSpace=wrap;html=1;" parent="1" vertex="1">
          <mxGeometry x="570" y="150" width="170" height="30" as="geometry" />
        </mxCell>
        <mxCell id="eAiWKubyIKp_Eu82q0j3-19" value="" style="endArrow=classic;html=1;exitX=1;exitY=0.5;exitDx=0;exitDy=0;entryX=0;entryY=0.5;entryDx=0;entryDy=0;" parent="1" source="eAiWKubyIKp_Eu82q0j3-2" target="eAiWKubyIKp_Eu82q0j3-18" edge="1">
          <mxGeometry width="50" height="50" relative="1" as="geometry">
            <mxPoint x="390" y="390" as="sourcePoint" />
            <mxPoint x="440" y="340" as="targetPoint" />
          </mxGeometry>
        </mxCell>
        <mxCell id="eAiWKubyIKp_Eu82q0j3-20" value="获取每个关键词embedding" style="rounded=0;whiteSpace=wrap;html=1;" parent="1" vertex="1">
          <mxGeometry x="570" y="390" width="170" height="30" as="geometry" />
        </mxCell>
        <mxCell id="eAiWKubyIKp_Eu82q0j3-21" value="" style="endArrow=classic;html=1;exitX=1;exitY=0.5;exitDx=0;exitDy=0;entryX=0;entryY=0.5;entryDx=0;entryDy=0;" parent="1" source="eAiWKubyIKp_Eu82q0j3-5" target="eAiWKubyIKp_Eu82q0j3-20" edge="1">
          <mxGeometry width="50" height="50" relative="1" as="geometry">
            <mxPoint x="390" y="390" as="sourcePoint" />
            <mxPoint x="440" y="340" as="targetPoint" />
          </mxGeometry>
        </mxCell>
        <mxCell id="eAiWKubyIKp_Eu82q0j3-23" value="" style="endArrow=classic;html=1;exitX=0.5;exitY=1;exitDx=0;exitDy=0;entryX=0.5;entryY=0;entryDx=0;entryDy=0;" parent="1" source="eAiWKubyIKp_Eu82q0j3-5" target="eAiWKubyIKp_Eu82q0j3-17" edge="1">
          <mxGeometry width="50" height="50" relative="1" as="geometry">
            <mxPoint x="390" y="390" as="sourcePoint" />
            <mxPoint x="440" y="340" as="targetPoint" />
          </mxGeometry>
        </mxCell>
        <mxCell id="eAiWKubyIKp_Eu82q0j3-24" value="title反包含" style="rounded=0;whiteSpace=wrap;html=1;" parent="1" vertex="1">
          <mxGeometry x="138" y="550" width="210" height="30" as="geometry" />
        </mxCell>
        <mxCell id="eAiWKubyIKp_Eu82q0j3-25" value="" style="endArrow=classic;html=1;exitX=0.5;exitY=1;exitDx=0;exitDy=0;entryX=1;entryY=0.5;entryDx=0;entryDy=0;" parent="1" source="eAiWKubyIKp_Eu82q0j3-17" target="eAiWKubyIKp_Eu82q0j3-24" edge="1">
          <mxGeometry width="50" height="50" relative="1" as="geometry">
            <mxPoint x="414" y="540" as="sourcePoint" />
            <mxPoint x="414" y="590" as="targetPoint" />
            <Array as="points">
              <mxPoint x="360" y="565" />
            </Array>
          </mxGeometry>
        </mxCell>
        <mxCell id="eAiWKubyIKp_Eu82q0j3-26" value="" style="endArrow=classic;html=1;exitX=0.5;exitY=1;exitDx=0;exitDy=0;entryX=0;entryY=0.5;entryDx=0;entryDy=0;" parent="1" source="eAiWKubyIKp_Eu82q0j3-15" target="eAiWKubyIKp_Eu82q0j3-24" edge="1">
          <mxGeometry width="50" height="50" relative="1" as="geometry">
            <mxPoint x="390" y="390" as="sourcePoint" />
            <mxPoint x="440" y="340" as="targetPoint" />
            <Array as="points">
              <mxPoint x="95" y="565" />
            </Array>
          </mxGeometry>
        </mxCell>
        <mxCell id="eAiWKubyIKp_Eu82q0j3-28" value="" style="endArrow=classic;html=1;exitX=1;exitY=0.5;exitDx=0;exitDy=0;entryX=0.5;entryY=0;entryDx=0;entryDy=0;" parent="1" source="eAiWKubyIKp_Eu82q0j3-18" target="eAiWKubyIKp_Eu82q0j3-29" edge="1">
          <mxGeometry width="50" height="50" relative="1" as="geometry">
            <mxPoint x="740" y="190" as="sourcePoint" />
            <mxPoint x="790" y="140" as="targetPoint" />
            <Array as="points">
              <mxPoint x="765" y="165" />
            </Array>
          </mxGeometry>
        </mxCell>
        <mxCell id="eAiWKubyIKp_Eu82q0j3-29" value="计&lt;br&gt;算&lt;br&gt;相&lt;br&gt;似&lt;br&gt;度" style="rounded=0;whiteSpace=wrap;html=1;" parent="1" vertex="1">
          <mxGeometry x="750" y="231" width="30" height="100" as="geometry" />
        </mxCell>
        <mxCell id="eAiWKubyIKp_Eu82q0j3-30" value="" style="endArrow=classic;html=1;exitX=1;exitY=0.5;exitDx=0;exitDy=0;entryX=0.5;entryY=1;entryDx=0;entryDy=0;" parent="1" source="eAiWKubyIKp_Eu82q0j3-20" target="eAiWKubyIKp_Eu82q0j3-29" edge="1">
          <mxGeometry width="50" height="50" relative="1" as="geometry">
            <mxPoint x="390" y="440" as="sourcePoint" />
            <mxPoint x="440" y="390" as="targetPoint" />
            <Array as="points">
              <mxPoint x="765" y="405" />
            </Array>
          </mxGeometry>
        </mxCell>
        <mxCell id="v3D6i5DnGNnK7TBi-Gh3-1" value="排序" style="rounded=0;whiteSpace=wrap;html=1;" vertex="1" parent="1">
          <mxGeometry x="255" y="630" width="210" height="30" as="geometry" />
        </mxCell>
        <mxCell id="v3D6i5DnGNnK7TBi-Gh3-2" value="" style="endArrow=classic;html=1;exitX=0.5;exitY=1;exitDx=0;exitDy=0;entryX=0;entryY=0.5;entryDx=0;entryDy=0;" edge="1" parent="1" source="eAiWKubyIKp_Eu82q0j3-24" target="v3D6i5DnGNnK7TBi-Gh3-1">
          <mxGeometry width="50" height="50" relative="1" as="geometry">
            <mxPoint x="150" y="700" as="sourcePoint" />
            <mxPoint x="200" y="650" as="targetPoint" />
            <Array as="points">
              <mxPoint x="243" y="645" />
            </Array>
          </mxGeometry>
        </mxCell>
        <mxCell id="v3D6i5DnGNnK7TBi-Gh3-3" value="" style="endArrow=classic;html=1;exitX=1;exitY=0.5;exitDx=0;exitDy=0;entryX=1;entryY=0.5;entryDx=0;entryDy=0;" edge="1" parent="1" source="eAiWKubyIKp_Eu82q0j3-29" target="v3D6i5DnGNnK7TBi-Gh3-1">
          <mxGeometry width="50" height="50" relative="1" as="geometry">
            <mxPoint x="650" y="530" as="sourcePoint" />
            <mxPoint x="700" y="480" as="targetPoint" />
            <Array as="points">
              <mxPoint x="800" y="281" />
              <mxPoint x="800" y="645" />
            </Array>
          </mxGeometry>
        </mxCell>
        <mxCell id="v3D6i5DnGNnK7TBi-Gh3-6" value="开始" style="rounded=1;whiteSpace=wrap;html=1;" vertex="1" parent="1">
          <mxGeometry x="322.19" y="730" width="80" height="30" as="geometry" />
        </mxCell>
        <mxCell id="v3D6i5DnGNnK7TBi-Gh3-7" value="&lt;span style=&quot;font-family: &amp;#34;dengxian&amp;#34;&quot;&gt;&lt;font style=&quot;font-size: 12px&quot;&gt;计算商品 &amp;nbsp;SKU &amp;nbsp;与关键词列表中各关键词的相似度&lt;/font&gt;&lt;/span&gt;&lt;span style=&quot;font-size: medium&quot;&gt;&lt;/span&gt;" style="rounded=0;whiteSpace=wrap;html=1;" vertex="1" parent="1">
          <mxGeometry x="244.38" y="910" width="235.62" height="39" as="geometry" />
        </mxCell>
        <mxCell id="v3D6i5DnGNnK7TBi-Gh3-8" value="&lt;span style=&quot;font-family: &amp;#34;dengxian&amp;#34;&quot;&gt;&lt;font style=&quot;font-size: 12px&quot;&gt;依据上述商品 SKU， 获取与所述商品SKU相关的关键词列表及关键词相关信息&lt;/font&gt;&lt;/span&gt;&lt;span style=&quot;font-size: medium&quot;&gt;&lt;/span&gt;" style="rounded=0;whiteSpace=wrap;html=1;" vertex="1" parent="1">
          <mxGeometry x="244.38" y="850" width="235.62" height="39" as="geometry" />
        </mxCell>
        <mxCell id="v3D6i5DnGNnK7TBi-Gh3-9" value="&lt;span style=&quot;font-family: &amp;#34;dengxian&amp;#34;&quot;&gt;&lt;font style=&quot;font-size: 12px&quot;&gt;接收商品SKU&lt;/font&gt;&lt;/span&gt;&lt;span style=&quot;font-size: medium&quot;&gt;&lt;/span&gt;" style="rounded=0;whiteSpace=wrap;html=1;" vertex="1" parent="1">
          <mxGeometry x="246.56" y="784" width="231.25" height="39" as="geometry" />
        </mxCell>
        <mxCell id="v3D6i5DnGNnK7TBi-Gh3-10" value="&lt;span style=&quot;font-family: &amp;#34;dengxian&amp;#34;&quot;&gt;&lt;font style=&quot;font-size: 12px&quot;&gt;从关键词列表中选取与商品SKU相关性满足设定条件的关键词，并按设定排序规则排序后，选取排在前N的关键词作为推荐关键词&lt;/font&gt;&lt;/span&gt;&lt;span style=&quot;font-size: medium&quot;&gt;&lt;/span&gt;" style="rounded=0;whiteSpace=wrap;html=1;" vertex="1" parent="1">
          <mxGeometry x="242.69" y="970" width="239" height="50" as="geometry" />
        </mxCell>
        <mxCell id="v3D6i5DnGNnK7TBi-Gh3-11" value="" style="endArrow=classic;html=1;exitX=0.5;exitY=1;exitDx=0;exitDy=0;entryX=0.5;entryY=0;entryDx=0;entryDy=0;" edge="1" parent="1" source="v3D6i5DnGNnK7TBi-Gh3-6" target="v3D6i5DnGNnK7TBi-Gh3-9">
          <mxGeometry width="50" height="50" relative="1" as="geometry">
            <mxPoint x="340" y="805" as="sourcePoint" />
            <mxPoint x="390" y="755" as="targetPoint" />
          </mxGeometry>
        </mxCell>
        <mxCell id="v3D6i5DnGNnK7TBi-Gh3-12" value="" style="endArrow=classic;html=1;exitX=0.5;exitY=1;exitDx=0;exitDy=0;entryX=0.5;entryY=0;entryDx=0;entryDy=0;" edge="1" parent="1" source="v3D6i5DnGNnK7TBi-Gh3-9" target="v3D6i5DnGNnK7TBi-Gh3-8">
          <mxGeometry width="50" height="50" relative="1" as="geometry">
            <mxPoint x="532.5" y="828.5" as="sourcePoint" />
            <mxPoint x="582.5" y="778.5" as="targetPoint" />
          </mxGeometry>
        </mxCell>
        <mxCell id="v3D6i5DnGNnK7TBi-Gh3-13" value="" style="endArrow=classic;html=1;exitX=0.5;exitY=1;exitDx=0;exitDy=0;entryX=0.5;entryY=0;entryDx=0;entryDy=0;" edge="1" parent="1" source="v3D6i5DnGNnK7TBi-Gh3-8" target="v3D6i5DnGNnK7TBi-Gh3-7">
          <mxGeometry width="50" height="50" relative="1" as="geometry">
            <mxPoint x="600" y="935" as="sourcePoint" />
            <mxPoint x="650" y="885" as="targetPoint" />
          </mxGeometry>
        </mxCell>
        <mxCell id="v3D6i5DnGNnK7TBi-Gh3-14" value="" style="endArrow=classic;html=1;exitX=0.5;exitY=1;exitDx=0;exitDy=0;" edge="1" parent="1" source="v3D6i5DnGNnK7TBi-Gh3-7" target="v3D6i5DnGNnK7TBi-Gh3-10">
          <mxGeometry width="50" height="50" relative="1" as="geometry">
            <mxPoint x="610" y="984" as="sourcePoint" />
            <mxPoint x="660" y="934" as="targetPoint" />
          </mxGeometry>
        </mxCell>
        <mxCell id="v3D6i5DnGNnK7TBi-Gh3-16" value="结束" style="rounded=1;whiteSpace=wrap;html=1;" vertex="1" parent="1">
          <mxGeometry x="322.19" y="1050" width="80" height="30" as="geometry" />
        </mxCell>
        <mxCell id="v3D6i5DnGNnK7TBi-Gh3-17" value="" style="endArrow=classic;html=1;exitX=0.5;exitY=1;exitDx=0;exitDy=0;entryX=0.5;entryY=0;entryDx=0;entryDy=0;" edge="1" parent="1" source="v3D6i5DnGNnK7TBi-Gh3-10" target="v3D6i5DnGNnK7TBi-Gh3-16">
          <mxGeometry width="50" height="50" relative="1" as="geometry">
            <mxPoint x="620" y="840" as="sourcePoint" />
            <mxPoint x="670" y="790" as="targetPoint" />
          </mxGeometry>
        </mxCell>
      </root>
    </mxGraphModel>
  </diagram>
</mxfile>
